<svg width="33" height="33" viewBox="0 0 33 33" fill="none" xmlns="http://www.w3.org/2000/svg">
<rect width="33" height="33" rx="16.5" fill="#F9E9B9"/>
<path d="M17.0927 10.3984C16.3311 10.3984 15.6006 10.701 15.062 11.2396C14.5234 11.7782 14.2208 12.5087 14.2208 13.2703C14.2208 14.032 14.5234 14.7625 15.062 15.3011C15.6006 15.8397 16.3311 16.1422 17.0927 16.1422C17.8544 16.1422 18.5849 15.8397 19.1235 15.3011C19.6621 14.7625 19.9646 14.032 19.9646 13.2703C19.9646 12.5087 19.6621 11.7782 19.1235 11.2396C18.5849 10.701 17.8544 10.3984 17.0927 10.3984ZM13.5093 16.8602C13.3202 16.8594 13.1328 16.8959 12.9578 16.9677C12.7828 17.0395 12.6238 17.1451 12.4898 17.2785C12.3557 17.4119 12.2494 17.5705 12.1768 17.7452C12.1042 17.9198 12.0669 18.1071 12.0669 18.2962C12.0669 19.5103 12.665 20.4257 13.5998 21.0223C14.5202 21.6089 15.7609 21.8861 17.0927 21.8861C18.4246 21.8861 19.6652 21.6089 20.5857 21.0223C21.5205 20.4264 22.1186 19.5096 22.1186 18.2962C22.1186 17.9153 21.9673 17.5501 21.698 17.2808C21.4287 17.0115 21.0634 16.8602 20.6826 16.8602H13.5093Z" fill="#3E3E3E"/>
</svg>
